<svg width="222" height="147" viewBox="0 0 222 147" fill="none" xmlns="http://www.w3.org/2000/svg">
<path d="M0.535156 0H221.535V147H0.535156V0Z" fill="#509E2F"/>
<path d="M0.535156 0H221.535V98H0.535156V0Z" fill="#EF3340"/>
<path d="M0.535156 0H221.535V49H0.535156V0Z" fill="#00B5E2"/>
<path d="M107.136 93.7494C118.113 93.7494 127.011 84.8512 127.011 73.8747C127.011 62.8982 118.113 54 107.136 54C96.1599 54 87.2617 62.8982 87.2617 73.8747C87.2617 84.8512 96.1599 93.7494 107.136 93.7494Z" fill="white"/>
<path d="M111.554 90.437C120.702 90.437 128.117 83.0218 128.117 73.8748C128.117 64.7277 120.702 57.3125 111.554 57.3125C102.407 57.3125 94.9922 64.7277 94.9922 73.8748C94.9922 83.0218 102.407 90.437 111.554 90.437Z" fill="#ED2939"/>
<path d="M129.221 62.832L131.347 68.7668L137.033 66.0617L134.328 71.7756L140.263 73.8735L134.328 75.999L137.033 81.6854L131.347 78.9802L129.221 84.915L127.096 78.9802L121.409 81.6854L124.114 75.999L118.18 73.8735L124.114 71.748L121.409 66.0617L127.096 68.7668L129.221 62.832Z" fill="white"/>
</svg>
