<svg width="222" height="147" viewBox="0 0 222 147" fill="none" xmlns="http://www.w3.org/2000/svg">
<path fill-rule="evenodd" clip-rule="evenodd" d="M0.5 0H221.5V147H0.5V0Z" fill="#E30A17"/>
<path fill-rule="evenodd" clip-rule="evenodd" d="M134.42 73.7202C134.42 94.2705 118.102 110.94 97.9599 110.94C77.8173 110.94 61.5 94.2705 61.5 73.6892C61.5 53.1079 77.8173 36.5 97.9599 36.5C118.102 36.5 134.42 53.1699 134.42 73.7202Z" fill="white"/>
<path fill-rule="evenodd" clip-rule="evenodd" d="M136.216 73.7211C136.216 90.1738 123.186 103.491 107.078 103.491C90.97 103.491 77.9102 90.1427 77.9102 73.6901C77.9102 57.2375 90.97 43.9512 107.078 43.9512C123.186 43.9512 136.246 57.2685 136.246 73.7211H136.216Z" fill="#E30A17"/>
<path fill-rule="evenodd" clip-rule="evenodd" d="M141.505 56.3377L141.206 70.0896L128.863 73.5664L141.056 78.0676L140.758 90.702L148.677 80.8304L160.691 85.1764L153.758 74.5908L162.215 64.0673L149.215 67.7924L141.505 56.3066V56.3377Z" fill="white"/>
</svg>
